inDegrees=yes
name=ik_lifting_orientations
DataType=double
version=3
OpenSimVersion=4.5-2024-01-10-34fd6af
endheader
time	pelvis_tilt	pelvis_list	pelvis_rotation	pelvis_tx	pelvis_ty	pelvis_tz	hip_flexion_r	hip_adduction_r	hip_rotation_r	knee_angle_r	knee_angle_r_beta	ankle_angle_r	subtalar_angle_r	mtp_angle_r	hip_flexion_l	hip_adduction_l	hip_rotation_l	knee_angle_l	knee_angle_l_beta	ankle_angle_l	subtalar_angle_l	mtp_angle_l	lumbar_extension	lumbar_bending	lumbar_rotation	arm_flex_r	arm_add_r	arm_rot_r	elbow_flex_r	pro_sup_r	wrist_flex_r	wrist_dev_r	arm_flex_l	arm_add_l	arm_rot_l	elbow_flex_l	pro_sup_l	wrist_flex_l	wrist_dev_l
0.02	6.151620376128146e-05	-0.006996618610650955	-89.97973559347896	0	0.9399999998679526	0	43.14330742038454	-13.31943909140634	0	57.65982022337297	1.006353709005871	-6.763967462110938	0	0	43.14330742038454	-13.31943909140634	0	57.65982022337297	1.006353709005871	-6.763967462110938	0	0	-0.01332954247714025	0.002192289959485239	0.01345529034918987	-0.1950536279534131	-0.05370084822583023	-0.0147174139238996	0.4251679319072519	7.025551530403478	0	0	0	-8.190188049425034	0	83.05897011690965	7.025551530403478	0	0
0.03	-0.008081580761693415	-0.00625487441049854	-89.97637817596905	0	0.9399999998679526	0	43.14357386471531	-13.31776152908981	0	57.6600837499895	1.006358308412996	-6.76280922180469	0	0	43.14357386471531	-13.31776152908981	0	57.6600837499895	1.006358308412996	-6.76280922180469	0	0	-0.0884608864829078	0.005133454362177215	0.02932465827473311	-0.2041981032281334	-0.01978742163046655	-0.008118328628744809	0.5215210002573736	7.024846595304912	0	0	0	-8.190689681942287	0	83.05966645447671	7.024846595304912	0	0
0.04	-0.004838292283301716	0.008528421280284275	-89.90947069086144	0	0.9399999998679526	0	43.14388023567142	-13.31583910702131	0	57.66038749075008	1.00636360968934	-6.761482873787595	0	0	43.14388023567142	-13.31583910702131	0	57.66038749075008	1.00636360968934	-6.761482873787595	0	0	-0.1710688586473119	0.00909157124172461	0.0009192186898999464	-0.1130716717758785	-0.01696951472761695	-0.01674070475269169	0.490569348767546	7.02403527151274	0	0	0	-8.191267491798467	0	83.06046788382113	7.02403527151274	0	0
0.05	-0.008480520787178817	-0.001395997062918595	-89.84241802201352	0	0.9399999998679526	0	43.20318648907198	-13.00088183634992	0	57.71980172393983	1.007400583681049	-6.556878704911294	0	0	43.20318648907198	-13.00088183634992	0	57.71980172393983	1.007400583681049	-6.556878704911294	0	0	-0.2546551251310353	0.01379559888295213	-0.1326608172806374	-0.09510449306238597	-0.02113373818151975	0.05485692149156134	0.5310742111366421	6.86381941963539	0	0	0	-8.306822265877335	0	83.21873320647771	6.86381941963539	0	0
0.06	-0.00957337984200173	0.00362721474651385	-89.84275965441957	0	0.9399999998679526	0	43.23763982069003	-12.82703768013274	0	57.75449673172027	1.008006125800823	-6.44589874195191	0	0	43.23763982069003	-12.82703768013274	0	57.75449673172027	1.008006125800823	-6.44589874195191	0	0	-0.3081583343043645	0.01550328238780595	-0.09979142605067166	-0.04270211583091561	-0.02320816171910742	0.02174582286314486	0.5413391825199391	6.770085558972714	0	0	0	-8.374741969405207	0	83.31132649382931	6.770085558972714	0	0
0.07000000000000001	-0.01644159274145209	-0.001427783788583385	-89.78013629352436	0	0.9399999998679526	0	43.27167081164825	-12.66155569711092	0	57.78889557092496	1.008606498803809	-6.341605384854389	0	0	43.27167081164825	-12.66155569711092	0	57.78889557092496	1.008606498803809	-6.341605384854389	0	0	-0.370845491905849	0.02635291419312367	-0.1323311720949047	-0.2302584581614152	-0.0822911429868408	-0.07040352520218539	1.022688686849552	6.677033766032929	0	0	0	-8.442391620482626	0	83.4032464225493	6.677033766032929	0	0
0.08	-0.01520065719189939	0.001867165111777125	-89.79459633107828	0	0.9399999998679526	0	43.3111440459426	-12.47334800209114	0	57.82886154729745	1.009304036680283	-6.223930172494764	0	0	43.3111440459426	-12.47334800209114	0	57.82886154729745	1.009304036680283	-6.223930172494764	0	0	-0.4275643036288356	0.02158014821055485	-0.1153134966564212	0.02234611778879747	-0.0418182722242454	-0.1011561624541852	0.6231639531386507	6.568842985434811	0	0	0	-8.521167613878644	0	83.51012139787628	6.568842985434811	0	0
0.09	-0.01958447343089734	0.02646180723693615	-89.78513133431383	0	0.9399999998679526	0	43.34678291803156	-12.30897937740283	0	57.86506139495001	1.009935843210541	-6.122401712982521	0	0	43.34678291803156	-12.30897937740283	0	57.86506139495001	1.009935843210541	-6.122401712982521	0	0	-0.3923505438675947	0.03100510426284551	-0.1196264129656436	-0.1843777592106569	-0.1074050051242849	-0.174568512722983	1.003569212568316	6.470733453996806	0	0	0	-8.592806550017185	0	83.6070380744101	6.470733453996806	0	0
0.1	-0.02076290766817435	-0.01182397007573009	-89.72485192691536	0	0.9399999998679526	0	43.38459211347237	-12.14469868263472	0	57.90369405898592	1.010610110396784	-6.023143799327447	0	0	43.38459211347237	-12.14469868263472	0	57.90369405898592	1.010610110396784	-6.023143799327447	0	0	-0.4624895555942918	0.02109849082154627	-0.1201469564778845	0.08681343431121862	-0.04505669192656167	-0.289631972437433	0.5058241480555049	6.36584223564722	0	0	0	-8.669783920676158	0	83.71065464912415	6.36584223564722	0	0
0.11	-0.01178438958603026	0.07197557223389327	-89.70975103100453	0	0.9399999998679526	0	43.3848345069753	-12.14357827790114	0	57.90394234281625	1.010614443767103	-6.022448748391341	0	0	43.3848345069753	-12.14357827790114	0	57.90394234281625	1.010614443767103	-6.022448748391341	0	0	-0.4273166214042122	0.01943170716484034	-0.0802602513676195	0.1277669988994529	-0.07116855144114761	-0.4408898980031074	0.4998409391255096	6.365173467795025	0	0	0	-8.67027337554611	0	83.71131528643259	6.365173467795025	0	0
0.12	-0.01862527783404008	0.06836473932370078	-89.66383309926256	0	0.9399999998679526	0	43.42651864157158	-11.97491135294383	0	57.94681141771326	1.01136265027134	-5.923105980624112	0	0	43.42651864157158	-11.97491135294383	0	57.94681141771326	1.01136265027134	-5.923105980624112	0	0	-0.4349213228124412	0.02132548435434213	-0.1192485066183692	0.1380739675685936	-0.03585288855978411	-0.4524512758247796	0.4895743668881402	6.248439554889456	0	0	0	-8.756466779879851	0	83.82663154732853	6.248439554889456	0	0
0.13	-0.01922954014621561	0.06976237985650395	-89.66437930216142	0	0.9399999998679526	0	43.45748384222986	-11.85772282774677	0	57.97887458748654	1.011922258152509	-5.855631507734882	0	0	43.45748384222986	-11.85772282774677	0	57.97887458748654	1.011922258152509	-5.855631507734882	0	0	-0.5027334584450125	0.02455091745524278	-0.1188583626054985	0.1887437747154282	-0.043710677748932	-0.4828522416294926	0.46371562705587	6.160911637740661	0	0	0	-8.821489640269156	0	83.91309711291194	6.160911637740661	0	0
0.14	-0.02711421039542772	0.09569917203016294	-89.609286656796	0	0.9399999998679526	0	43.49677404256988	-11.71429106300486	0	58.01969939737116	1.012634785501497	-5.77417999366929	0	0	43.49677404256988	-11.71429106300486	0	58.01969939737116	1.012634785501497	-5.77417999366929	0	0	-0.4470551167207925	0.04050372836263851	-0.1441821239298147	-0.0903662843530722	-0.1138838690160031	-0.5155249765174488	0.9663612482794118	6.049332537306241	0	0	0	-8.904630430064843	0	84.02332232437108	6.049332537306241	0	0
0.15	-0.02804742638466206	0.08446307084183088	-89.59648790410569	0	0.9399999998679526	0	43.53311918835884	-11.58461734556705	0	58.05756552102942	1.0132956740343	-5.701206556330596	0	0	43.53311918835884	-11.58461734556705	0	58.05756552102942	1.0132956740343	-5.701206556330596	0	0	-0.4824237399416703	0.02522887656382716	-0.1350730920747139	0.1213696606016237	-0.04946627920575333	-0.5389038164560424	0.5892088709706848	5.945814027578241	0	0	0	-8.981909151203912	0	84.12558491755229	5.945814027578241	0	0
0.16	-0.03149897387707146	0.07049482475822839	-89.51884775843013	0	0.9399999998679526	0	43.56525729132847	-11.47664326280879	0	58.09122395583457	1.013883124542718	-5.641755700444441	0	0	43.56525729132847	-11.47664326280879	0	58.09122395583457	1.013883124542718	-5.641755700444441	0	0	-0.4291966839797073	0.03359327321181679	-0.1972338618559804	0.1115891662702995	-0.03437064793272016	-0.5239299288756625	0.4832990215371077	5.853545620992615	0	0	0	-9.051143439078638	0	84.21673441706726	5.853545620992615	0	0
0.17	-0.02655463032724383	0.07068967104958519	-89.52181423892071	0	0.9399999998679526	0	43.59526484923333	-11.38394084210556	0	58.1229161539818	1.014436257747582	-5.592191306051521	0	0	43.59526484923333	-11.38394084210556	0	58.1229161539818	1.014436257747582	-5.592191306051521	0	0	-0.4789718189429675	0.03135481780561893	-0.1570944930893265	-0.07109411951008154	-0.08887182277373064	-0.5675618977146298	0.9730812063228858	5.766394416495941	0	0	0	-9.117029132867845	0	84.30282944961493	5.766394416495941	0	0
0.18	-0.02266864431566623	0.06813923627548039	-89.55568298584429	0	0.9399999998679526	0	43.62501361226192	-11.29211160683402	0	58.15433587488173	1.014984635327343	-5.543159259763342	0	0	43.62501361226192	-11.29211160683402	0	58.15433587488173	1.014984635327343	-5.543159259763342	0	0	-0.5019657001073853	0.02691095088687135	-0.1122952430799505	0.1840269749508051	-0.04524874784792735	-0.5538660403287125	0.4806382896997436	5.680003744848194	0	0	0	-9.182333317829901	0	84.38817313430926	5.680003744848194	0	0
0.19	-0.02965566563010709	0.07213752232142659	-89.53390387520086	0	0.9399999998679526	0	43.69132465135086	-11.12207395020363	0	58.2256043077038	1.016228504132825	-5.458438271408134	0	0	43.69132465135086	-11.12207395020363	0	58.2256043077038	1.016228504132825	-5.458438271408134	0	0	-0.4990320986357207	0.03296489090545177	-0.120670166267929	0.1909059631113498	-0.03799142947007087	-0.5771325075467901	0.4725781132858791	5.482690782735213	0	0	0	-9.333828831549827	0	84.58309786106589	5.482690782735213	0	0
0.2	-0.02910957791938184	0.07178917530861145	-89.53547384944024	0	0.9399999998679526	0	43.78126900627971	-10.91056727528047	0	58.3232409972145	1.017932585835534	-5.355610328164218	0	0	43.78126900627971	-10.91056727528047	0	58.3232409972145	1.017932585835534	-5.355610328164218	0	0	-0.4996031431823141	0.02841500307814738	-0.1183223922231576	0.1287531270508299	-0.04677629870213189	-0.578692994505815	0.6009057567232835	5.211330175473758	0	0	0	-9.544075327257669	0	84.85117592256924	5.211330175473758	0	0
0.21	-0.03557694689156952	0.07237515531174225	-89.47588495782769	0	0.9399999998679526	0	43.8075710280992	-10.84895320481365	0	58.35183425246838	1.018431632283577	-5.325559363788643	0	0	43.8075710280992	-10.84895320481365	0	58.35183425246838	1.018431632283577	-5.325559363788643	0	0	-0.4979187823132463	0.03741152064424104	-0.1173224664191492	0.2077746204770537	-0.03263956721362513	-0.6096789046876229	0.4981498419213066	5.13182161909647	0	0	0	-9.605763585887827	0	84.92972273709542	5.13182161909647	0	0
0.22	-0.03366042030693886	0.07209432716093593	-89.47258055516851	0	0.9399999998679526	0	43.83946060507152	-10.78008580117861	0	58.38677203791378	1.019041411672955	-5.292968478139858	0	0	43.83946060507152	-10.78008580117861	0	58.38677203791378	1.019041411672955	-5.292968478139858	0	0	-0.500520496121226	0.03628975972597717	-0.119510376774977	0.2070136007783858	-0.06327720370305276	-0.606307148318277	0.5048025619039441	5.034369373672514	0	0	0	-9.681899205126477	0	85.0259967472405	5.034369373672514	0	0
0.23	-0.05099335537607382	0.1578639352673915	-89.40021831502682	0	0.9399999998679526	0	43.87388709734264	-10.71055142449407	0	58.42474983089442	1.019704249203108	-5.260830994466542	0	0	43.87388709734264	-10.71055142449407	0	58.42474983089442	1.019704249203108	-5.260830994466542	0	0	-0.4207485989242465	0.04658841094596277	-0.1792171438956133	-0.03142608611192035	-0.1126514501488386	-0.663019168554224	1.028922693087592	4.928180196683434	0	0	0	-9.765356881072133	0	85.13090252454002	4.928180196683434	0	0
0.24	-0.05294994540050987	0.1402281339484144	-89.41782781171963	0	0.9399999998679526	0	43.89325755967584	-10.67348901952766	0	58.44623744682912	1.020079278849572	-5.244029045990389	0	0	43.89325755967584	-10.67348901952766	0	58.44623744682912	1.020079278849572	-5.244029045990389	0	0	-0.4335659125255117	0.04279362356169893	-0.1229103726661258	0.2703345701411489	-0.02361245109560437	-0.724991076373988	0.4673111250917838	4.867982261337572	0	0	0	-9.812895400675147	0	85.19037310950435	4.867982261337572	0	0
